# 3ds Max Wavefront OBJ Exporter v0.97b - (c)2007 guruware
# File Created: 16.10.2015 10:57:41

mtllib 3d-model.mtl

#
# object HDDWP_M_001
#

v  -38.1000 0.0000 11.2141
v  -38.1000 1.5875 8.4582
v  38.1000 1.5875 8.4582
v  38.1000 0.0000 11.2141
v  -38.1000 4.7625 8.4582
v  38.1000 4.7625 8.4582
v  -38.1000 1.5875 13.9700
v  38.1000 1.5875 13.9700
v  -38.1000 6.3500 11.2141
v  38.1000 6.3500 11.2141
v  -38.1000 4.7625 13.9700
v  38.1000 4.7625 13.9700
# 12 vertices

vn 0.0000 -1.0000 0.0000
vn 0.0000 -0.5000 -0.8660
vn 0.0000 0.5000 -0.8660
vn 0.0000 -0.5000 0.8660
vn 0.0000 1.0000 -0.0000
vn 0.0000 0.5000 0.8660
# 6 vertex normals

vt 0.0000 0.0000 0.0000
# 1 texture coords

g HDDWP_M_001
usemtl wire_177028149
s off
f 1/1/1 2/1/2 3/1/2 4/1/1 
f 3/1/2 2/1/2 5/1/3 6/1/3 
f 7/1/4 1/1/1 4/1/1 8/1/4 
f 5/1/3 9/1/5 10/1/5 6/1/3 
f 9/1/5 11/1/6 12/1/6 10/1/5 
f 7/1/4 8/1/4 12/1/6 11/1/6 
# 6 polygons

#
# object HDDWP_R_001
#

v  50.6277 6.3500 -13.9700
v  50.6277 6.3500 4.9381
v  53.3400 4.7625 5.1170
v  53.3400 4.7625 -13.9700
v  44.1861 1.5875 8.5117
v  38.1000 1.5875 8.5117
v  38.1000 4.7625 8.5117
v  44.1861 4.7625 8.5117
v  38.1000 6.3500 11.2408
v  44.3638 6.3500 11.2408
v  52.1577 4.7625 9.4658
v  52.1577 1.5875 9.4658
v  53.0568 1.5875 7.2818
v  53.0568 4.7625 7.2818
v  38.1000 1.5875 13.9700
v  44.5416 1.5875 13.9700
v  44.5416 4.7625 13.9700
v  38.1000 4.7625 13.9700
v  46.6931 1.5875 13.6850
v  45.9850 0.0000 11.0261
v  47.4958 0.0000 10.3964
v  48.8636 1.5875 12.7804
v  46.1279 4.7625 8.0125
v  45.2770 4.7625 8.3672
v  45.9850 6.3500 11.0261
v  47.4958 6.3500 10.3964
v  46.6931 4.7625 13.6850
v  46.1279 1.5875 8.0125
v  45.2770 1.5875 8.3672
v  44.3638 0.0000 11.2408
v  38.1000 0.0000 11.2408
v  50.4142 0.0000 6.5694
v  50.6277 0.0000 4.9381
v  53.3400 1.5875 5.1170
v  48.8636 4.7625 12.7804
v  47.7717 1.5875 5.8569
v  47.7717 4.7625 5.8569
v  47.9154 4.7625 4.7593
v  47.9154 1.5875 4.7593
v  50.4142 6.3500 6.5694
v  49.7885 0.0000 8.0895
v  47.4193 1.5875 6.7131
v  47.4193 4.7625 6.7131
v  49.7885 6.3500 8.0895
v  46.8586 4.7625 7.4484
v  48.7930 6.3500 9.3948
v  50.7275 1.5875 11.3413
v  48.7930 0.0000 9.3948
v  50.7275 4.7625 11.3413
v  46.8586 1.5875 7.4484
v  53.3400 1.5875 -13.9700
v  47.9154 1.5875 -13.9700
v  50.6277 0.0000 -13.9700
v  47.9154 4.7625 -13.9700
# 54 vertices

vn 0.0000 1.0000 -0.0000
vn 0.0207 0.9998 0.0014
vn 0.8690 0.4916 0.0570
vn 0.8660 0.5000 -0.0000
vn -0.0563 -0.5096 -0.8585
vn 0.0000 -0.5000 -0.8660
vn 0.0000 0.5000 -0.8660
vn -0.0563 0.5096 -0.8585
vn 0.0014 0.9998 0.0207
vn 0.7577 0.4843 0.4374
vn 0.7577 -0.4843 0.4374
vn 0.8451 -0.4843 0.2264
vn 0.8451 0.4843 0.2264
vn 0.0000 -0.5000 0.8660
vn 0.0570 -0.4916 0.8690
vn 0.0570 0.4916 0.8690
vn 0.0000 0.5000 0.8660
vn 0.2264 -0.4843 0.8451
vn 0.0107 -0.9991 0.0399
vn 0.0207 -0.9991 0.0358
vn 0.4374 -0.4843 0.7577
vn -0.4269 0.5206 -0.7394
vn -0.2210 0.5206 -0.8247
vn 0.0107 0.9991 0.0399
vn 0.0207 0.9991 0.0358
vn 0.2264 0.4843 0.8451
vn -0.4269 -0.5206 -0.7394
vn -0.2210 -0.5206 -0.8247
vn 0.0014 -0.9998 0.0207
vn 0.0000 -1.0000 -0.0000
vn 0.0399 -0.9991 0.0107
vn 0.0207 -0.9998 0.0014
vn 0.8690 -0.4916 0.0570
vn 0.4374 0.4843 0.7577
vn -0.8247 -0.5206 -0.2210
vn -0.8247 0.5206 -0.2210
vn -0.8585 0.5096 -0.0563
vn -0.8585 -0.5096 -0.0563
vn 0.0399 0.9991 0.0107
vn 0.0358 -0.9991 0.0207
vn -0.7394 -0.5206 -0.4269
vn -0.7394 0.5206 -0.4269
vn 0.0358 0.9991 0.0207
vn -0.6037 0.5206 -0.6037
vn 0.0292 0.9991 0.0292
vn 0.6186 -0.4843 0.6186
vn 0.0292 -0.9991 0.0292
vn 0.6186 0.4843 0.6186
vn -0.6037 -0.5206 -0.6037
vn 0.8660 -0.5000 -0.0000
vn -0.8660 -0.5000 -0.0000
vn -0.8660 0.5000 -0.0000
# 52 vertex normals

vt 0.0000 0.0000 0.0000
# 1 texture coords

g HDDWP_R_001
usemtl wire_028089177
s off
f 13/2/7 14/2/8 15/2/9 16/2/10 
f 17/2/11 18/2/12 19/2/13 20/2/14 
f 19/2/13 21/2/7 22/2/15 20/2/14 
f 23/2/16 24/2/17 25/2/18 26/2/19 
f 27/2/20 28/2/21 29/2/22 30/2/23 
f 31/2/24 32/2/25 33/2/26 34/2/27 
f 35/2/28 36/2/29 37/2/30 38/2/31 
f 28/2/21 31/2/24 39/2/32 29/2/22 
f 40/2/33 41/2/34 36/2/29 35/2/28 
f 28/2/21 42/2/35 32/2/25 31/2/24 
f 27/2/20 43/2/36 42/2/35 28/2/21 
f 25/2/18 44/2/37 45/2/38 46/2/39 
f 26/2/19 25/2/18 46/2/39 15/2/9 
f 31/2/24 34/2/27 47/2/40 39/2/32 
f 48/2/41 49/2/42 50/2/43 51/2/44 
f 37/2/30 22/2/15 29/2/22 39/2/32 
f 50/2/43 49/2/42 52/2/45 14/2/8 
f 38/2/31 37/2/30 39/2/32 47/2/40 
f 53/2/46 54/2/47 48/2/41 44/2/37 
f 49/2/42 55/2/48 56/2/49 52/2/45 
f 43/2/36 18/2/12 17/2/11 42/2/35 
f 32/2/25 41/2/34 40/2/33 33/2/26 
f 36/2/29 20/2/14 22/2/15 37/2/30 
f 54/2/47 55/2/48 49/2/42 48/2/41 
f 55/2/48 57/2/50 58/2/51 56/2/49 
f 41/2/34 17/2/11 20/2/14 36/2/29 
f 59/2/52 60/2/53 53/2/46 24/2/17 
f 34/2/27 59/2/52 61/2/54 47/2/40 
f 62/2/55 40/2/33 35/2/28 57/2/50 
f 15/2/9 46/2/39 63/2/56 16/2/10 
f 42/2/35 17/2/11 41/2/34 32/2/25 
f 56/2/49 58/2/51 61/2/54 23/2/16 
f 51/2/44 64/2/57 65/2/36 45/2/38 
f 34/2/27 33/2/26 60/2/53 59/2/52 
f 61/2/54 59/2/52 24/2/17 23/2/16 
f 60/2/53 62/2/55 54/2/47 53/2/46 
f 24/2/17 53/2/46 44/2/37 25/2/18 
f 21/2/7 30/2/23 29/2/22 22/2/15 
f 14/2/8 52/2/45 26/2/19 15/2/9 
f 51/2/44 50/2/43 66/2/58 64/2/57 
f 66/2/58 50/2/43 14/2/8 13/2/7 
f 33/2/26 40/2/33 62/2/55 60/2/53 
f 45/2/38 65/2/36 63/2/56 46/2/39 
f 62/2/55 57/2/50 55/2/48 54/2/47 
f 58/2/51 38/2/31 47/2/40 61/2/54 
f 52/2/45 56/2/49 23/2/16 26/2/19 
f 57/2/50 35/2/28 38/2/31 58/2/51 
f 44/2/37 48/2/41 51/2/44 45/2/38 
# 48 polygons

#
# object HDDWP_L_001
#

v  -50.6277 6.3500 -13.9700
v  -50.6277 6.3500 4.9381
v  -53.3400 4.7625 5.1170
v  -53.3400 4.7625 -13.9700
v  -44.1861 1.5875 8.5117
v  -38.1000 1.5875 8.5117
v  -38.1000 4.7625 8.5117
v  -44.1861 4.7625 8.5117
v  -38.1000 6.3500 11.2408
v  -44.3638 6.3500 11.2408
v  -52.1577 4.7625 9.4658
v  -52.1577 1.5875 9.4658
v  -53.0568 1.5875 7.2818
v  -53.0568 4.7625 7.2818
v  -38.1000 1.5875 13.9700
v  -44.5416 1.5875 13.9700
v  -44.5416 4.7625 13.9700
v  -38.1000 4.7625 13.9700
v  -46.6931 1.5875 13.6850
v  -45.9850 0.0000 11.0261
v  -47.4958 0.0000 10.3964
v  -48.8636 1.5875 12.7804
v  -46.1279 4.7625 8.0125
v  -45.2770 4.7625 8.3672
v  -45.9850 6.3500 11.0261
v  -47.4958 6.3500 10.3964
v  -46.6931 4.7625 13.6850
v  -46.1279 1.5875 8.0125
v  -45.2770 1.5875 8.3672
v  -44.3638 0.0000 11.2408
v  -38.1000 0.0000 11.2408
v  -50.4142 0.0000 6.5694
v  -50.6277 0.0000 4.9381
v  -53.3400 1.5875 5.1170
v  -48.8636 4.7625 12.7804
v  -47.7717 1.5875 5.8569
v  -47.7717 4.7625 5.8569
v  -47.9154 4.7625 4.7593
v  -47.9154 1.5875 4.7593
v  -50.4142 6.3500 6.5694
v  -49.7885 0.0000 8.0895
v  -47.4193 1.5875 6.7131
v  -47.4193 4.7625 6.7131
v  -49.7885 6.3500 8.0895
v  -46.8586 4.7625 7.4484
v  -48.7930 6.3500 9.3948
v  -50.7275 1.5875 11.3413
v  -48.7930 0.0000 9.3948
v  -50.7275 4.7625 11.3413
v  -46.8586 1.5875 7.4484
v  -53.3400 1.5875 -13.9700
v  -47.9154 1.5875 -13.9700
v  -50.6277 -0.0000 -13.9700
v  -47.9154 4.7625 -13.9700
# 54 vertices

vn -0.0000 1.0000 -0.0000
vn -0.0207 0.9998 0.0014
vn -0.8690 0.4916 0.0570
vn -0.8660 0.5000 -0.0000
vn 0.0563 -0.5096 -0.8585
vn 0.0000 -0.5000 -0.8660
vn 0.0000 0.5000 -0.8660
vn 0.0563 0.5096 -0.8585
vn -0.0014 0.9998 0.0207
vn -0.7577 0.4843 0.4374
vn -0.7577 -0.4843 0.4374
vn -0.8451 -0.4843 0.2264
vn -0.8451 0.4843 0.2264
vn 0.0000 -0.5000 0.8660
vn -0.0570 -0.4916 0.8690
vn -0.0570 0.4916 0.8690
vn 0.0000 0.5000 0.8660
vn -0.2264 -0.4843 0.8451
vn -0.0107 -0.9991 0.0399
vn -0.0207 -0.9991 0.0358
vn -0.4374 -0.4843 0.7577
vn 0.4269 0.5206 -0.7394
vn 0.2210 0.5206 -0.8247
vn -0.0107 0.9991 0.0399
vn -0.0207 0.9991 0.0358
vn -0.2264 0.4843 0.8451
vn 0.4269 -0.5206 -0.7394
vn 0.2210 -0.5206 -0.8247
vn -0.0014 -0.9998 0.0207
vn 0.0000 -1.0000 0.0000
vn -0.0399 -0.9991 0.0107
vn -0.0207 -0.9998 0.0014
vn -0.8690 -0.4916 0.0570
vn -0.4374 0.4843 0.7577
vn 0.8247 -0.5206 -0.2210
vn 0.8247 0.5206 -0.2210
vn 0.8585 0.5096 -0.0563
vn 0.8585 -0.5096 -0.0563
vn -0.0399 0.9991 0.0107
vn -0.0358 -0.9991 0.0207
vn 0.7394 -0.5206 -0.4269
vn 0.7394 0.5206 -0.4269
vn -0.0358 0.9991 0.0207
vn 0.6037 0.5206 -0.6037
vn -0.0292 0.9991 0.0292
vn -0.6186 -0.4843 0.6186
vn -0.0292 -0.9991 0.0292
vn -0.6186 0.4843 0.6186
vn 0.6037 -0.5206 -0.6037
vn -0.8660 -0.5000 0.0000
vn 0.8660 -0.5000 0.0000
vn 0.8660 0.5000 -0.0000
# 52 vertex normals

vt 0.0000 0.0000 0.0000
# 1 texture coords

g HDDWP_L_001
usemtl wire_087224198
s off
f 70/3/62 69/3/61 68/3/60 67/3/59 
f 74/3/66 73/3/65 72/3/64 71/3/63 
f 74/3/66 76/3/67 75/3/59 73/3/65 
f 80/3/71 79/3/70 78/3/69 77/3/68 
f 84/3/75 83/3/74 82/3/73 81/3/72 
f 88/3/79 87/3/78 86/3/77 85/3/76 
f 92/3/83 91/3/82 90/3/81 89/3/80 
f 83/3/74 93/3/84 85/3/76 82/3/73 
f 89/3/80 90/3/81 95/3/86 94/3/85 
f 85/3/76 86/3/77 96/3/87 82/3/73 
f 82/3/73 96/3/87 97/3/88 81/3/72 
f 100/3/91 99/3/90 98/3/89 79/3/70 
f 69/3/61 100/3/91 79/3/70 80/3/71 
f 93/3/84 101/3/92 88/3/79 85/3/76 
f 105/3/96 104/3/95 103/3/94 102/3/93 
f 93/3/84 83/3/74 76/3/67 91/3/82 
f 68/3/60 106/3/97 103/3/94 104/3/95 
f 101/3/92 93/3/84 91/3/82 92/3/83 
f 98/3/89 102/3/93 108/3/99 107/3/98 
f 106/3/97 110/3/101 109/3/100 103/3/94 
f 96/3/87 71/3/63 72/3/64 97/3/88 
f 87/3/78 94/3/85 95/3/86 86/3/77 
f 91/3/82 76/3/67 74/3/66 90/3/81 
f 102/3/93 103/3/94 109/3/100 108/3/99 
f 110/3/101 112/3/103 111/3/102 109/3/100 
f 90/3/81 74/3/66 71/3/63 95/3/86 
f 78/3/69 107/3/98 114/3/105 113/3/104 
f 101/3/92 115/3/106 113/3/104 88/3/79 
f 111/3/102 89/3/80 94/3/85 116/3/107 
f 70/3/62 117/3/108 100/3/91 69/3/61 
f 86/3/77 95/3/86 71/3/63 96/3/87 
f 77/3/68 115/3/106 112/3/103 110/3/101 
f 99/3/90 119/3/88 118/3/109 105/3/96 
f 113/3/104 114/3/105 87/3/78 88/3/79 
f 77/3/68 78/3/69 113/3/104 115/3/106 
f 107/3/98 108/3/99 116/3/107 114/3/105 
f 79/3/70 98/3/89 107/3/98 78/3/69 
f 76/3/67 83/3/74 84/3/75 75/3/59 
f 69/3/61 80/3/71 106/3/97 68/3/60 
f 118/3/109 120/3/110 104/3/95 105/3/96 
f 67/3/59 68/3/60 104/3/95 120/3/110 
f 114/3/105 116/3/107 94/3/85 87/3/78 
f 100/3/91 117/3/108 119/3/88 99/3/90 
f 108/3/99 109/3/100 111/3/102 116/3/107 
f 115/3/106 101/3/92 92/3/83 112/3/103 
f 80/3/71 77/3/68 110/3/101 106/3/97 
f 112/3/103 92/3/83 89/3/80 111/3/102 
f 99/3/90 105/3/96 102/3/93 98/3/89 
# 48 polygons

