v -0.0010181322 -0.04402961209 0.05207100138
vn -0.06409113109 -0.9968345165 -0.04704509676
v 0.03338409588 -0.02865165472 0.09667857736
vn 0.782517612 -0.5890413523 0.2017336339
v -0.04286842048 0.008944986388 0.09689513594
vn -0.1665084213 0.01865373552 0.9858635664
v 0.03525615111 0.07752916962 0.09605704248
vn -0.03857281059 0.2918611765 0.9556825757
v 0.03268452734 0.07416911423 0.09682990611
vn 0.02339283749 0.1860054731 0.9822701812
v 0.07384549081 0.03267867863 0.09687139839
vn 0.1884933859 0.0115720639 0.9820062518
v 0.008366488852 -0.04315007478 0.09660782665
vn 0.190286845 -0.9523925781 0.2382000387
v -0.02146500535 -0.0383733809 0.05200413987
vn -0.02792340703 -0.04917032272 -0.9983999729
v 0.08087871969 0.03730567545 0.09044268727
vn 0.82655406 -0.5611866117 0.04333592951
v 0.07907072455 0.03507743031 0.09449206293
vn 0.784144938 -0.5420429707 0.302169174
v -0.02749451809 0.03420447186 0.09675475955
vn -0.5744662285 0.7888575196 0.2183858752
v 0.08079510182 0.03667026013 0.08232408762
vn 0.8147884011 -0.5797580481 0.0007010094705
v 0.03463528678 -0.02722816728 0.05212360993
vn 0.7914844155 -0.5799843669 -0.1927965879
v -0.01178186759 -0.04240855947 0.05205472559
vn -0.2617226839 -0.9482350945 -0.1798650026
v 0.0437682718 -0.003467657138 0.05200039223
vn 0.2500408292 -0.01785532013 -0.9680706263
v 0.04253501818 0.01207476016 0.05200248212
vn 0.188453421 0.0682817325 -0.9797055125
v 0.07932777703 0.03702141345 0.07664708793
vn 0.5159156322 0.1277413219 -0.8470615149
v 0.06678209454 0.05402071774 0.09438665211
vn 0.5247918367 0.4905311763 0.6956814528
v 0.05508268625 0.06746489555 0.09276969731
vn 0.6007906199 0.6613215208 0.4491152465
v 0.04993769154 0.06971164793 0.09490355104
vn 0.3677349687 0.4265669882 0.8263241649
v -0.03531043977 -0.0407374315 0.08461381495
vn -0.2610220015 -0.962415576 -0.07499179989
v -0.03447277844 0.02753177471 0.05210818723
vn -0.6142531633 0.4779603779 -0.6278908849
v 0.02139048278 -0.03796993941 0.09694205225
vn 0.002057860838 -0.002667773748 0.9999943376
v -0.0112963235 -0.04228776693 0.09694636613
vn -0.3103452921 -0.806363225 0.5034522414
v -0.01125744451 -0.04229489341 0.09694637358
vn -0.1608768404 -0.9258424044 0.3419567943
v 0.02152964473 -0.03827433288 0.09668898582
vn 0.4954609275 -0.8561052084 0.146977365
v 0.07895255089 0.03830876574 0.09470323473
vn 0.4730347693 0.3542964458 0.8066673279
v 0.07979878783 0.0370608978 0.09410776943
vn 0.8665281534 -0.06590881199 0.4947575629
v -0.0400377512 0.01847736537 0.05209482089
vn -0.8167828918 0.3602628112 -0.450639993
v 0.07331457734 0.03129506111 0.0968727842
vn 0.02189429291 -0.01361775305 0.9996675253
v -0.002945727902 0.04382025823 0.05200015008
vn -0.001140772249 0.2055399567 -0.9786480665
v 0.0369473584 0.07938059419 0.07666725665
vn 0.08993733674 0.5572713017 -0.825445354
v 0.01370969694 0.04201337323 0.05200257152
vn 0.06406393647 0.1740338206 -0.9826535583
v -0.04071174935 -0.03550449014 0.08471371233
vn -0.9524714351 -0.2875674367 -0.1005141586
v -0.02997488342 -0.03219458088 0.05203899369
vn -0.6502315402 -0.6880017519 -0.3222615421
v 0.01498658583 -0.04107000306 0.09694515169
vn 0.0805831179 -0.1655784845 0.9828988314
v -0.002679439262 -0.04348738864 0.09694756567
vn -0.001625630772 -0.0158985164 0.9998722672
v 0.07312741876 0.03462634981 0.09686945379
vn 0.1338843554 0.1061423346 0.985296309
v -0.03642665595 -0.03950113431 0.08907882869
vn -0.2607720196 -0.8521399498 0.4537129402
v 0.02688164636 -0.03439598903 0.09693847597
vn 0.3225007057 -0.4929158688 0.8081009984
v 0.002013193909 -0.0438275747 0.09680429846
vn 0.06521847844 -0.9621024728 0.2647741735
v -0.03789424151 -0.03798968717 0.08972628415
vn -0.4370890856 -0.4408974946 0.7839403749
v -0.04390378296 0.002414231421 0.09664910287
vn -0.9863402247 0.04220128059 0.1592230946
v 0.05853959545 0.05274424702 0.09685133398
vn 0.01084731892 0.01181455888 0.9998713732
v -0.002607537666 -0.04385188222 0.09667437524
vn -0.08866818249 -0.990750432 0.1027205586
v 0.02702658437 -0.03426902741 0.09693834931
vn 0.1604707688 -0.1668958962 0.972828269
v 0.08035984635 0.03908288106 0.09251365811
vn 0.8024587631 0.5225905776 0.2880260944
v 0.07305949181 0.0503520593 0.08855607361
vn 0.7615099549 0.6419822574 0.08922656626
v 0.0726204142 0.04867802933 0.0931462273
vn 0.6937236786 0.5583031774 0.455022037
v 0.08130612969 0.03972349688 0.08582134545
vn 0.8811209798 0.4702681899 0.04973590001
v 0.04058748484 -0.01723669097 0.0520400852
vn 0.3653177321 -0.1482292116 -0.9190054536
v -0.01327188779 0.04187458381 0.05200487375
vn -0.08008489013 0.242241025 -0.9669052362
v -0.02320129983 0.03746650741 0.05208601803
vn -0.5407455564 0.7768313289 -0.3226876259
v -0.03966638446 -0.0362739712 0.08883243054
vn -0.8615247011 -0.3043831885 0.4063570499
v 0.008516982198 -0.04326270148 0.05210528523
vn 0.1959035546 -0.970339179 -0.1416461915
v 0.03517857566 0.07944927365 0.09382943809
vn -0.5717628598 0.8127994537 0.1115539968
v 0.0381796658 0.08047708869 0.09282185882
vn 0.3039225042 0.8937092423 0.3300226629
v 0.03754409403 0.08096315712 0.08926898241
vn -0.3842393756 0.9220719337 0.04629722983
v 0.03115067631 0.03121465258 0.05199053138
vn 0.2139037848 0.2105675042 -0.9538902044
v 0.07297447324 0.04705897719 0.07730636746
vn 0.4198811352 0.3385535479 -0.8420696855
v -0.02875658311 0.03332588077 0.05210967734
vn -0.4865154922 0.5440043807 -0.6836387515
v 0.03316116706 -0.02840017714 0.09693247825
vn 0.004465794191 -0.002152831992 0.9999877214
v -0.03701324388 -0.0238850005 0.05207103491
vn -0.7829460502 -0.4584625661 -0.4204849005
v -0.04272501916 -0.01044292562 0.05206360668
vn -0.8410027623 -0.2651546001 -0.4716008902
v 0.02774642035 -0.03428300098 0.05205195025
vn 0.5886262059 -0.7372205257 -0.3317002356
v 0.01489136182 -0.04110975936 0.09694518894
vn 0.1424288005 -0.5830148458 0.7998797894
v 0.03430696204 0.07356394082 0.09683051705
vn 0.1152602211 0.1372016817 0.9838144183
v -0.04335751384 -0.006639265921 0.09682222456
vn -0.9779293537 -0.1099526286 0.1776643097
v -0.01031632535 -0.04245799407 0.09694653749
vn -0.1241805404 -0.7187520266 0.68408674
v 0.07709597796 0.04521561787 0.08217249066
vn 0.7779170871 0.6224400997 -0.08610080928
v 0.08087357134 0.03910787031 0.07997893542
vn 0.8818123937 0.3974691927 -0.2538210154
v 0.07420078665 0.04786834866 0.07966377586
vn 0.7108289003 0.586925149 -0.3876095116
v 0.06435231119 0.05796264857 0.07830432802
vn 0.5934472084 0.5729349852 -0.5653016567
v 0.04669488594 0.07545506209 0.09060143679
vn 0.6091747284 0.7643407583 0.2113986313
v 0.03897216544 0.07964190096 0.0936916098
vn 0.500970006 0.6605436802 0.5592057705
v 0.03815168515 0.08049288392 0.07836223394
vn 0.2807820141 0.8486897349 -0.4482044578
v 0.03965600953 0.08108696342 0.08162782341
vn 0.5618616343 0.8044538498 -0.1927837282
v 0.04575848207 0.07513607293 0.07840356231
vn 0.5473553538 0.6958259344 -0.4650036097
v 0.0496748127 0.06979645044 0.07664272189
vn 0.3486005664 0.4039625227 -0.8457493186
v 0.06381329894 0.05581206083 0.07644215971
vn 0.3800118268 0.3645957112 -0.850094676
v 0.03693531454 0.0789816007 0.09502860904
vn 0.2438203394 0.498093009 0.8321387768
v -0.03187562525 0.03017865866 0.09670752287
vn -0.7169940472 0.6776897311 0.1632671952
v 0.02707079239 -0.03453958035 0.0967675373
vn 0.5923457146 -0.7225804329 0.3563762903
v 0.01497617457 -0.04122847319 0.09684073925
vn 0.3258616328 -0.9151735306 0.2372163832
v -0.04403458536 -0.001619880437 0.05207373202
vn -0.9845130444 -0.06257940829 -0.1637617946
v -0.04326638579 0.008525510319 0.0520972833
vn -0.8744498491 0.1622579098 -0.4571759701
v 0.08001940697 0.03630905226 0.0781461373
vn 0.839795053 -0.4897197187 -0.2343477458
v 0.05476450175 0.06792261451 0.07909800112
vn 0.6055133343 0.6552461982 -0.451670289
v 0.06514057517 0.05910614505 0.0815885067
vn 0.7244583964 0.6791560054 -0.11792849
v 0.05479744822 0.06927759945 0.08241298795
vn 0.6462958455 0.7566257119 -0.09909204394
v 0.06704507023 0.05624082685 0.09152863175
vn 0.6892343163 0.6504074931 0.3192586899
v 0.05868183449 0.06567037106 0.08834821731
vn 0.6815911531 0.7272615433 0.08077233285
v 0.03935528919 0.08109659702 0.08937221766
vn 0.4032388926 0.8966123462 0.1829881519
v 0.03534729779 0.07985108346 0.07938686013
vn -0.5783822536 0.8156259656 -0.01510753762
v 0.06230151653 0.05587651208 0.0958237946
vn 0.1608429551 0.1597989053 0.9739578366
v -0.03656999022 0.02446551248 0.09655831009
vn -0.8145404458 0.5260264277 0.2445814312
v 0.07763703912 0.03570913523 0.09599108249
vn 0.3035370111 -0.06011932716 0.9509211183
v 0.01826187409 -0.0401269123 0.0521010682
vn 0.4008815885 -0.8680550456 -0.2928726971
v 0.03998579457 0.08118730783 0.08576731384
vn 0.6014454365 0.7985045314 0.02557074465
v -0.0429600291 0.00904091727 0.09682019055
vn -0.9297504425 0.2410393357 0.2783237398
v 0.03784801438 0.08113066107 0.0825676024
vn -0.2094388455 0.9769056439 -0.04231663793
v 0.07983570546 0.03862749785 0.07775656134
vn 0.6710345745 0.475408107 -0.5689461827
v -0.04285167903 0.009058860131 0.09689502418
vn -0.5169609189 0.1628432125 0.8403769732
v -0.03198471665 -0.03012361936 0.09693420678
vn -0.4803841412 -0.354446739 0.8022459745
v -0.03891386092 -0.02031576447 0.09692439437
vn -0.4865216911 -0.3398681283 0.8048517108
v -0.02041786723 -0.03877151757 0.09694284946
vn -0.2144777626 -0.8263808489 0.5206668377
v 0.03167198226 0.07389707863 0.09683018178
vn -0.01085511129 0.01727184094 0.9997919202
v -0.04357657954 0.002261098707 0.09690181911
vn -0.02693423815 0.001652983832 0.9996358156
v -0.03905389458 -0.02002798952 0.09692411125
vn -0.545580864 -0.174171418 0.8197596073
v 0.0019086838 -0.0436340943 0.09694771469
vn -0.007487120107 -0.2396961153 0.9708191156
v -0.02734744549 0.03412159532 0.09686996043
vn -0.01200053003 0.01880566776 0.9997511506
v -0.04283297062 -0.008096914738 0.09691217542
vn -0.03065745533 -0.008709614165 0.9994919896
v -0.02852382697 -0.03303162009 0.09693711251
vn -0.02996517904 -0.04171718284 0.9986799955
v -0.02050195634 -0.03872775659 0.09694280475
vn -0.3607956767 -0.5087390542 0.7816720009
v 0.002083142055 -0.04362788424 0.09694770724
vn 0.08647137135 -0.5899787545 0.8027750254
v 0.00831735041 -0.04270970821 0.09694679081
vn 0.0005854269839 -0.001977698179 0.9999978542
v -0.04062118754 0.01611604728 0.09688796103
vn -0.9420617223 0.3114818931 0.1244938448
v -0.03990701959 0.01807850786 0.09688600153
vn -0.8857396245 0.4635714889 0.02380708046
v -0.04008515552 0.01773780584 0.09688634425
vn -0.939691782 0.3419734836 0.005787917878
v -0.04324582592 -0.006613566075 0.09691069275
vn -0.4024337232 -0.01809007861 0.9152703881
v -0.03172145411 0.03002241254 0.09687405825
vn -0.1630100906 0.1470140666 0.975609839
v -0.03612944111 0.02434763312 0.09687973559
vn -0.2259185165 0.1754650623 0.9582133293
v -0.03631675243 0.02405625209 0.09688002616
vn -0.001387667144 0.001836179872 0.9999973774
v -0.02743757516 0.03404961899 0.09687002748
vn -0.4069246948 0.4342163205 0.8036594391
v 0.01937419735 0.03960767016 0.0968644768
vn 1.224646853e-16 0.001000014832 0.9999995232
v 0.003645578632 -0.01613327675 0.09692021459
vn 1.224646853e-16 0.001000014832 0.9999995232
v 0.03144158795 0.01733433269 0.09688674659
vn 1.224646853e-16 0.001000014832 0.9999995232
v -0.008265899494 0.01545987464 0.09688862413
vn 1.224646853e-16 0.001000014832 0.9999995232
# mm_gid 0
g mmGroup0
f 31//31 8//8 52//52 
f 65//65 98//98 8//8 
f 1//1 8//8 55//55 
f 85//85 8//8 64//64 
f 22//22 61//61 8//8 
f 61//61 53//53 8//8 
f 63//63 64//64 8//8 
f 15//15 16//16 17//17 
f 18//18 19//19 20//20 
f 98//98 55//55 8//8 
f 15//15 8//8 16//16 
f 59//59 16//16 8//8 
f 13//13 65//65 8//8 
f 31//31 33//33 8//8 
f 86//86 29//29 8//8 
f 29//29 22//22 8//8 
f 31//31 32//32 33//33 
f 34//34 68//68 85//85 
f 68//68 43//43 85//85 
f 2//2 83//83 65//65 
f 86//86 100//100 29//29 
f 29//29 117//117 119//119 
f 29//29 100//100 117//117 
f 121//121 124//124 82//82 
f 11//11 82//82 124//124 
f 7//7 66//66 116//116 
f 7//7 84//84 66//66 
f 11//11 124//124 111//111 
f 96//96 123//123 122//122 
f 47//47 48//48 49//49 
f 9//9 12//12 50//50 
f 96//96 118//118 123//123 
f 82//82 122//122 121//121 
f 82//82 96//96 122//122 
f 27//27 18//18 95//95 
f 51//51 15//15 17//17 
f 32//32 31//31 52//52 
f 32//32 52//52 53//53 
f 43//43 120//120 108//108 
f 56//56 57//57 58//58 
f 17//17 16//16 59//59 
f 59//59 60//60 17//17 
f 43//43 68//68 120//120 
f 68//68 112//112 120//120 
f 63//63 34//34 64//64 
f 68//68 34//34 54//54 
f 119//119 118//118 29//29 
f 96//96 29//29 118//118 
f 100//100 103//103 117//117 
f 20//20 4//4 95//95 
f 9//9 47//47 28//28 
f 95//95 18//18 20//20 
f 70//70 71//71 72//72 
f 73//73 72//72 60//60 
f 19//19 74//74 75//75 
f 75//75 20//20 19//19 
f 83//83 26//26 65//65 
f 65//65 26//26 98//98 
f 76//76 77//77 78//78 
f 33//33 32//32 59//59 
f 32//32 79//79 59//59 
f 80//80 60//60 59//59 
f 81//81 57//57 56//56 
f 20//20 75//75 81//81 
f 41//41 115//115 110//110 
f 116//116 115//115 7//7 
f 41//41 7//7 115//115 
f 114//114 113//113 39//39 
f 106//106 114//114 39//39 
f 42//42 39//39 113//113 
f 42//42 113//113 104//104 
f 109//109 112//112 54//54 
f 34//34 63//63 35//35 
f 85//85 64//64 34//34 
f 68//68 54//54 112//112 
f 29//29 96//96 22//22 
f 22//22 96//96 82//82 
f 22//22 82//82 61//61 
f 4//4 111//111 107//107 
f 4//4 11//11 111//111 
f 56//56 94//94 11//11 
f 47//47 50//50 48//48 
f 49//49 18//18 27//27 
f 50//50 71//71 70//70 
f 11//11 94//94 53//53 
f 51//51 87//87 13//13 
f 71//71 12//12 87//87 
f 50//50 12//12 71//71 
f 17//17 87//87 51//51 
f 88//88 89//89 73//73 
f 88//88 90//90 89//89 
f 19//19 91//91 92//92 
f 62//62 46//46 2//2 
f 49//49 27//27 47//47 
f 57//57 93//93 58//58 
f 83//83 2//2 46//46 
f 97//97 27//27 95//95 
f 56//56 58//58 94//94 
f 45//45 110//110 37//37 
f 45//45 41//41 110//110 
f 55//55 7//7 41//41 
f 55//55 84//84 7//7 
f 54//54 105//105 109//109 
f 105//105 54//54 104//104 
f 35//35 8//8 21//21 
f 85//85 43//43 86//86 
f 54//54 34//34 21//21 
f 108//108 3//3 43//43 
f 100//100 43//43 3//3 
f 100//100 86//86 43//43 
f 61//61 82//82 11//11 
f 11//11 4//4 56//56 
f 4//4 81//81 56//56 
f 20//20 81//81 4//4 
f 9//9 50//50 47//47 
f 9//9 28//28 10//10 
f 44//44 38//38 95//95 
f 87//87 12//12 13//13 
f 89//89 72//72 73//73 
f 72//72 89//89 70//70 
f 91//91 49//49 48//48 
f 97//97 95//95 38//38 
f 80//80 79//79 73//73 
f 73//73 79//79 88//88 
f 88//88 79//79 78//78 
f 88//88 78//78 90//90 
f 77//77 90//90 78//78 
f 19//19 92//92 74//74 
f 99//99 74//74 92//92 
f 99//99 92//92 90//90 
f 90//90 77//77 99//99 
f 28//28 97//97 10//10 
f 27//27 28//28 47//47 
f 53//53 94//94 32//32 
f 94//94 76//76 32//32 
f 76//76 101//101 77//77 
f 101//101 94//94 58//58 
f 59//59 79//79 80//80 
f 4//4 107//107 5//5 
f 24//24 106//106 21//21 
f 42//42 104//104 54//54 
f 14//14 21//21 8//8 
f 49//49 91//91 18//18 
f 19//19 18//18 91//91 
f 42//42 54//54 21//21 
f 90//90 92//92 89//89 
f 70//70 48//48 50//50 
f 48//48 92//92 91//91 
f 89//89 48//48 70//70 
f 32//32 76//76 78//78 
f 74//74 99//99 93//93 
f 100//100 3//3 103//103 
f 11//11 53//53 61//61 
f 97//97 6//6 30//30 
f 101//101 58//58 93//93 
f 79//79 32//32 78//78 
f 87//87 17//17 71//71 
f 17//17 102//102 71//71 
f 60//60 102//102 17//17 
f 81//81 75//75 57//57 
f 74//74 57//57 75//75 
f 93//93 57//57 74//74 
f 26//26 40//40 23//23 
f 26//26 83//83 40//40 
f 93//93 99//99 101//101 
f 101//101 99//99 77//77 
f 76//76 94//94 101//101 
f 60//60 80//80 73//73 
f 97//97 38//38 6//6 
f 4//4 5//5 67//67 
f 98//98 26//26 84//84 
f 89//89 92//92 48//48 
f 23//23 36//36 26//26 
f 60//60 72//72 102//102 
f 71//71 102//102 72//72 
f 84//84 26//26 36//36 
f 84//84 36//36 66//66 
f 45//45 37//37 69//69 
f 41//41 45//45 1//1 
f 55//55 98//98 84//84 
f 41//41 1//1 55//55 
f 14//14 1//1 21//21 
f 21//21 69//69 25//25 
f 21//21 45//45 69//69 
f 25//25 24//24 21//21 
f 39//39 21//21 106//106 
f 21//21 39//39 42//42 
f 21//21 34//34 35//35 
f 95//95 67//67 44//44 
f 95//95 4//4 67//67 
f 27//27 97//97 28//28 
f 97//97 2//2 10//10 
f 83//83 46//46 40//40 
f 2//2 30//30 62//62 
f 2//2 97//97 30//30 
f 65//65 13//13 2//2 
f 2//2 13//13 12//12 
f 9//9 2//2 12//12 
f 9//9 10//10 2//2 
f 1//1 45//45 21//21 
f 59//59 8//8 33//33 
f 86//86 8//8 85//85 
f 14//14 8//8 1//1 
f 51//51 8//8 15//15 
f 52//52 8//8 53//53 
f 63//63 8//8 35//35 
f 51//51 13//13 8//8 
# mm_gid 1
g mmGroup1
f 116//116 113//113 37//37 
f 38//38 30//30 6//6 
f 44//44 30//30 38//38 
f 107//107 44//44 67//67 
f 107//107 67//67 5//5 
f 117//117 123//123 118//118 
f 121//121 111//111 124//124 
f 122//122 111//111 121//121 
f 123//123 111//111 122//122 
f 112//112 123//123 108//108 
f 3//3 117//117 103//103 
f 117//117 118//118 119//119 
f 108//108 123//123 117//117 
f 108//108 117//117 3//3 
f 113//113 109//109 105//105 
f 112//112 108//108 120//120 
f 113//113 112//112 109//109 
f 126//126 62//62 127//127 
f 23//23 62//62 126//126 
f 113//113 105//105 104//104 
f 106//106 113//113 114//114 
f 69//69 113//113 106//106 
f 25//25 106//106 24//24 
f 69//69 106//106 25//25 
f 37//37 113//113 69//69 
f 116//116 37//37 110//110 
f 113//113 116//116 126//126 
f 116//116 110//110 115//115 
f 116//116 23//23 126//126 
f 36//36 116//116 66//66 
f 23//23 116//116 36//36 
f 46//46 23//23 40//40 
f 62//62 23//23 46//46 
f 30//30 44//44 127//127 
f 128//128 126//126 127//127 
f 128//128 123//123 112//112 
f 128//128 125//125 111//111 
f 107//107 111//111 125//125 
f 30//30 127//127 62//62 
f 107//107 125//125 44//44 
f 128//128 127//127 125//125 
f 125//125 127//127 44//44 
f 111//111 123//123 128//128 
f 126//126 112//112 113//113 
f 128//128 112//112 126//126 
